<svg xmlns="http://www.w3.org/2000/svg" width="24" height="24" viewBox="0 0 24 24" fill="#8385A9">
  <path d="M12 0a12 12 0 00-3.8 23.4c.6.1.8-.3.8-.6v-2.2c-3.3.7-4-1.6-4-1.6C4.7 17 3.8 16 3.8 16c-1-1.2.1-1.2.1-1.2 1.1 0 1.7 1.2 1.7 1.2 1 .8 2.6.6 3.3.5.1-.8.4-1.4.8-1.7-2.8-.3-5.8-1.4-5.8-6.2 0-1.4.5-2.5 1.2-3.4-.1-.3-.5-1.6.1-3.3 0 0 1-.3 3.3 1.3 1-.3 2-.5 3-.5s2 .2 3 .5c2.3-1.7 3.3-1.3 3.3-1.3.6 1.7.2 3 .1 3.3.7.9 1.2 2 1.2 3.4 0 4.8-3 5.9-5.8 6.2.5.4.9 1.1.9 2.3v3.4c0 .3.2.7.8.6A12 12 0 0012 0z"/>
</svg>
