<svg xmlns="http://www.w3.org/2000/svg" width="40" height="40" viewBox="0 0 24 24"><path fill="#0077B5" d="M21.35 2H2.65C1.194 2 0 3.194 0 4.65V19.35C0 20.805 1.194 22 2.65 22H21.35C22.805 22 24 20.805 24 19.35V4.65C24 3.194 22.805 2 21.35 2zM7.837 18.4H4V9.6h3.837v8.8zM5.918 8.514a2.068 2.068 0 11.002-4.136 2.068 2.068 0 010 4.136zm12.484 9.886h-3.826v-4.795c0-1.181-.022-2.698-1.642-2.698-1.645 0-1.898 1.287-1.898 2.612v5.881H8.227s.05-10.033 0-11.067h3.826v1.567c.51-.78 1.426-1.898 3.477-1.898 2.546 0 4.456 1.659 4.456 5.217v5.183z"/></svg>
